<svg width="71" height="79" viewBox="0 0 71 79" fill="none" xmlns="http://www.w3.org/2000/svg">
<path d="M66.8 17.8199L38.4 1.81994C37.4024 1.27817 36.2852 0.994385 35.15 0.994385C34.0147 0.994385 32.8975 1.27817 31.9 1.81994L3.39996 17.8199C2.3711 18.3998 1.51438 19.2422 0.917105 20.261C0.319834 21.2799 0.00336655 22.4389 -4.46529e-05 23.6199V55.5199C-0.00927375 56.7035 0.301887 57.8675 0.900457 58.8886C1.49903 59.9097 2.36271 60.7498 3.39996 61.3199L31.8 77.2199C32.7957 77.819 33.9379 78.1305 35.1 78.1199C36.2602 78.117 37.3989 77.8065 38.4 77.2199L66.8 61.3199C67.8288 60.74 68.6855 59.8977 69.2828 58.8789C69.8801 57.86 70.1965 56.701 70.2 55.5199V23.6199C70.2293 22.4325 69.9266 21.2605 69.3259 20.2358C68.7252 19.211 67.8504 18.3744 66.8 17.8199Z" fill="url(#paint0_linear_683_81)"/>
<path d="M15.3 47.9199L13.6 48.9199C13.2958 49.0885 13.0282 49.3159 12.8128 49.589C12.5974 49.862 12.4386 50.1752 12.3455 50.5103C12.2524 50.8454 12.227 51.1957 12.2707 51.5407C12.3144 51.8857 12.4263 52.2186 12.6 52.5199C12.8233 52.9375 13.1544 53.2876 13.5589 53.5338C13.9634 53.78 14.4265 53.9133 14.9 53.9199C15.35 53.9161 15.7938 53.8137 16.2 53.6199L17.9 52.6199C18.2042 52.4513 18.4718 52.2239 18.6871 51.9508C18.9025 51.6778 19.0614 51.3646 19.1545 51.0295C19.2475 50.6944 19.273 50.3441 19.2293 49.9991C19.1856 49.6541 19.0736 49.3212 18.9 49.0199C18.7455 48.7022 18.5273 48.4198 18.2588 48.1902C17.9903 47.9606 17.6774 47.7889 17.3396 47.6857C17.0018 47.5824 16.6463 47.55 16.2954 47.5903C15.9445 47.6306 15.6056 47.7428 15.3 47.9199ZM25.7 42.0199L22.2 44.0199C21.8958 44.1885 21.6282 44.4159 21.4128 44.689C21.1974 44.962 21.0386 45.2752 20.9455 45.6103C20.8524 45.9454 20.827 46.2957 20.8707 46.6407C20.9144 46.9857 21.0263 47.3186 21.2 47.6199C21.4233 48.0375 21.7544 48.3876 22.1589 48.6338C22.5634 48.88 23.0265 49.0133 23.5 49.0199C23.95 49.0161 24.3938 48.9137 24.8 48.7199L28.3 46.7199C28.6042 46.5513 28.8718 46.3239 29.0871 46.0508C29.3025 45.7778 29.4614 45.4646 29.5545 45.1295C29.6475 44.7944 29.673 44.4441 29.6293 44.0991C29.5856 43.7541 29.4736 43.4212 29.3 43.1199C29.1455 42.8022 28.9273 42.5198 28.6588 42.2902C28.3903 42.0606 28.0774 41.8889 27.7396 41.7857C27.4018 41.6824 27.0463 41.65 26.6954 41.6903C26.3445 41.7306 26.0056 41.8428 25.7 42.0199ZM39.8 37.1299C39.6591 36.8461 39.4625 36.5937 39.222 36.3875C38.9815 36.1813 38.7019 36.0257 38.4 35.9299V15.8199C38.4013 15.465 38.3324 15.1133 38.1971 14.7851C38.0619 14.4569 37.8631 14.1587 37.6121 13.9078C37.3611 13.6568 37.063 13.4579 36.7348 13.3227C36.4066 13.1875 36.0549 13.1186 35.7 13.1199C35.3504 13.121 35.0045 13.1924 34.683 13.3297C34.3615 13.4671 34.0709 13.6676 33.8284 13.9195C33.5859 14.1713 33.3964 14.4693 33.2713 14.7958C33.1462 15.1222 33.0879 15.4705 33.1 15.8199V36.0199C32.798 36.1157 32.5185 36.2713 32.2779 36.4775C32.0374 36.6837 31.8408 36.9361 31.7 37.2199C31.5121 37.5713 31.4056 37.9604 31.3883 38.3585C31.371 38.7566 31.4433 39.1535 31.6 39.5199C31.4433 39.8863 31.371 40.2832 31.3883 40.6813C31.4056 41.0794 31.5121 41.4685 31.7 41.8199C31.8408 42.1036 32.0374 42.3561 32.2779 42.5623C32.5185 42.7684 32.798 42.9241 33.1 43.0199V63.2199C33.1 63.936 33.3844 64.6227 33.8908 65.1291C34.3971 65.6354 35.0839 65.9199 35.8 65.9199C36.5161 65.9199 37.2028 65.6354 37.7092 65.1291C38.2155 64.6227 38.5 63.936 38.5 63.2199V42.9199C38.8019 42.8241 39.0815 42.6684 39.322 42.4623C39.5625 42.2561 39.7591 42.0036 39.9 41.7199C40.0879 41.3685 40.1944 40.9794 40.2117 40.5813C40.229 40.1832 40.1566 39.7863 40 39.4199C40.2313 38.6593 40.1597 37.8388 39.8 37.1299ZM46.61 30.2199L43.11 32.2199C42.8058 32.3885 42.5382 32.6159 42.3228 32.889C42.1074 33.162 41.9486 33.4752 41.8555 33.8103C41.7624 34.1454 41.737 34.4957 41.7807 34.8407C41.8244 35.1857 41.9363 35.5186 42.11 35.8199C42.3333 36.2375 42.6644 36.5876 43.0689 36.8338C43.4734 37.08 43.9365 37.2133 44.41 37.2199C44.86 37.2161 45.3038 37.1137 45.71 36.9199L49.21 34.9199C49.5142 34.7513 49.7818 34.5239 49.9971 34.2508C50.2125 33.9778 50.3714 33.6646 50.4645 33.3295C50.5575 32.9944 50.583 32.6441 50.5393 32.2991C50.4956 31.9541 50.3836 31.6212 50.21 31.3199C50.0555 31.0022 49.8373 30.7198 49.5688 30.4902C49.3003 30.2606 48.9874 30.0889 48.6496 29.9857C48.3118 29.8824 47.9563 29.85 47.6054 29.8903C47.2545 29.9306 46.9156 30.0428 46.61 30.2199ZM54.9 31.2199C55.35 31.2161 55.7938 31.1137 56.2 30.9199L57.9 29.9199C58.2038 29.7501 58.4711 29.522 58.6864 29.2486C58.9018 28.9752 59.0611 28.662 59.155 28.3269C59.249 27.9918 59.2758 27.6414 59.234 27.2959C59.1921 26.9504 59.0824 26.6166 58.9111 26.3136C58.7399 26.0106 58.5105 25.7444 58.2361 25.5304C57.9616 25.3163 57.6476 25.1586 57.3121 25.0663C56.9765 24.9739 56.626 24.9488 56.2807 24.9923C55.9354 25.0359 55.6021 25.1472 55.3 25.3199L53.6 26.3199C53.2958 26.4885 53.0282 26.7159 52.8128 26.989C52.5974 27.262 52.4386 27.5752 52.3455 27.9103C52.2524 28.2454 52.227 28.5957 52.2707 28.9407C52.3144 29.2857 52.4263 29.6186 52.6 29.9199C52.8289 30.3252 53.1641 30.6605 53.5693 30.8895C53.9746 31.1186 54.4346 31.2328 54.9 31.2199ZM57.9 48.9199L56.2 47.9199C55.5902 47.5791 54.8704 47.4937 54.1978 47.6823C53.5253 47.8709 52.9548 48.3181 52.6111 48.9262C52.2674 49.5343 52.1785 50.2537 52.3638 50.9271C52.5491 51.6006 52.9936 52.1733 53.6 52.5199L55.3 53.5199C55.7062 53.7137 56.1499 53.8161 56.6 53.8199C57.0735 53.8133 57.5365 53.68 57.941 53.4338C58.3455 53.1876 58.6767 52.8375 58.9 52.4199C59.0789 52.1281 59.1952 51.8024 59.2416 51.4633C59.288 51.1242 59.2634 50.7792 59.1693 50.4501C59.0753 50.121 58.9139 49.815 58.6954 49.5516C58.4769 49.2882 58.206 49.0731 57.9 48.9199ZM49.2 44.0199L45.7 42.0199C45.3978 41.8472 45.0645 41.7359 44.7192 41.6923C44.3739 41.6488 44.0234 41.6739 43.6879 41.7663C43.3523 41.8586 43.0383 42.0163 42.7639 42.2304C42.4895 42.4444 42.2601 42.7106 42.0888 43.0136C41.9175 43.3166 41.8078 43.6504 41.766 43.9959C41.7241 44.3414 41.751 44.6918 41.8449 45.0269C41.9389 45.362 42.0981 45.6752 42.3135 45.9486C42.5289 46.222 42.7962 46.4501 43.1 46.6199L46.6 48.6199C47.0062 48.8137 47.4499 48.9161 47.9 48.9199C48.3735 48.9133 48.8365 48.78 49.241 48.5338C49.6455 48.2876 49.9767 47.9375 50.2 47.5199C50.382 47.229 50.5008 46.903 50.5489 46.5633C50.5969 46.2235 50.573 45.8774 50.4787 45.5474C50.3844 45.2174 50.2219 44.911 50.0016 44.6478C49.7813 44.3847 49.5082 44.1707 49.2 44.0199ZM22.2 34.8199L25.7 36.8199C26.1062 37.0137 26.5499 37.1161 27 37.1199C27.4735 37.1133 27.9365 36.98 28.341 36.7338C28.7455 36.4876 29.0767 36.1375 29.3 35.7199C29.4736 35.4186 29.5856 35.0857 29.6293 34.7407C29.673 34.3957 29.6475 34.0454 29.5545 33.7103C29.4614 33.3752 29.3025 33.062 29.0871 32.789C28.8718 32.5159 28.6042 32.2885 28.3 32.1199L24.8 30.1199C24.4987 29.9462 24.1658 29.8343 23.8208 29.7906C23.4758 29.7469 23.1255 29.7723 22.7904 29.8654C22.4553 29.9585 22.1421 30.1174 21.869 30.3327C21.596 30.5481 21.3685 30.8157 21.2 31.1199C20.865 31.7482 20.7819 32.4805 20.9677 33.1678C21.1535 33.8551 21.5941 34.4459 22.2 34.8199ZM17.9 26.3199L16.2 25.3199C15.8978 25.1472 15.5645 25.0359 15.2192 24.9923C14.8739 24.9488 14.5234 24.9739 14.1879 25.0663C13.8523 25.1586 13.5383 25.3163 13.2639 25.5304C12.9895 25.7444 12.76 26.0106 12.5888 26.3136C12.4175 26.6166 12.3078 26.9504 12.266 27.2959C12.2241 27.6414 12.251 27.9918 12.3449 28.3269C12.4389 28.662 12.5981 28.9752 12.8135 29.2486C13.0289 29.522 13.2962 29.7501 13.6 29.9199L15.3 30.9199C15.7062 31.1137 16.1499 31.2161 16.6 31.2199C17.0735 31.2133 17.5365 31.08 17.941 30.8338C18.3455 30.5876 18.6767 30.2375 18.9 29.8199C19.0701 29.5259 19.1793 29.2006 19.221 28.8635C19.2628 28.5263 19.2362 28.1843 19.1429 27.8576C19.0495 27.531 18.8914 27.2265 18.6779 26.9623C18.4643 26.6981 18.1998 26.4796 17.9 26.3199Z" fill="#20133A"/>
<defs>
<linearGradient id="paint0_linear_683_81" x1="-4.46528e-05" y1="39.5599" x2="70.21" y2="39.5599" gradientUnits="userSpaceOnUse">
<stop stop-color="#9059FF"/>
<stop offset="1" stop-color="#F770FF"/>
</linearGradient>
</defs>
</svg>
